<?xml version="1.0" encoding="UTF-8" standalone="no"?>
<!DOCTYPE svg PUBLIC "-//W3C//DTD SVG 1.1//EN"
 "http://www.w3.org/Graphics/SVG/1.1/DTD/svg11.dtd">
<!-- Generated by graphviz version 2.38.0 (20140413.2041)
 -->
<!-- Title: models_diagram Pages: 1 -->
<svg width="3154pt" height="369pt"
 viewBox="0.00 0.00 3154.03 369.00" xmlns="http://www.w3.org/2000/svg" xmlns:xlink="http://www.w3.org/1999/xlink">
<g id="graph0" class="graph" transform="scale(1 1) rotate(0) translate(4 365)">
<title>models_diagram</title>
<polygon fill="none" stroke="none" points="-4,4 -4,-365 3150.03,-365 3150.03,4 -4,4"/>
<!-- _diagram_info -->
<g id="node1" class="node"><title>_diagram_info</title>
<text text-anchor="start" x="8" y="-346.6" font-family="Times,serif" font-size="13.00">Models diagram</text>
<text text-anchor="start" x="8" y="-333.6" font-family="Times,serif" font-size="13.00">Date: Dec 03 2015 &#45; 15:58</text>
<text text-anchor="start" x="8" y="-320.6" font-family="Times,serif" font-size="13.00">Migration version: 20140712132425</text>
<text text-anchor="start" x="8" y="-307.6" font-family="Times,serif" font-size="13.00">Generated by RailRoady 1.4.1</text>
<text text-anchor="start" x="8" y="-294.6" font-family="Times,serif" font-size="13.00">http://railroady.prestonlee.com</text>
</g>
<!-- ArmGroup -->
<g id="node2" class="node"><title>ArmGroup</title>
<ellipse fill="none" stroke="black" cx="2188.69" cy="-162" rx="48.8273" ry="18"/>
<text text-anchor="middle" x="2188.69" y="-157.8" font-family="Times,serif" font-size="14.00">ArmGroup</text>
</g>
<!-- ArmGroupIntervention -->
<g id="node3" class="node"><title>ArmGroupIntervention</title>
<ellipse fill="none" stroke="black" cx="2188.69" cy="-18" rx="92.267" ry="18"/>
<text text-anchor="middle" x="2188.69" y="-13.8" font-family="Times,serif" font-size="14.00">ArmGroupIntervention</text>
</g>
<!-- ArmGroup&#45;&gt;ArmGroupIntervention -->
<g id="edge1" class="edge"><title>ArmGroup&#45;&gt;ArmGroupIntervention</title>
<path fill="none" stroke="#0bef9b" d="M2188.69,-135.558C2188.69,-110.444 2188.69,-72.164 2188.69,-46.3932"/>
<ellipse fill="none" stroke="#0bef9b" cx="2188.69" cy="-139.871" rx="4" ry="4"/>
<polygon fill="#0bef9b" stroke="#0bef9b" points="2188.69,-46.1893 2193.19,-36.1892 2188.69,-41.1893 2188.69,-36.1893 2188.69,-36.1893 2188.69,-36.1893 2188.69,-41.1893 2184.19,-36.1893 2188.69,-46.1893 2188.69,-46.1893"/>
</g>
<!-- Intervention -->
<g id="node14" class="node"><title>Intervention</title>
<ellipse fill="none" stroke="black" cx="2045.69" cy="-90" rx="53.1539" ry="18"/>
<text text-anchor="middle" x="2045.69" y="-85.8" font-family="Times,serif" font-size="14.00">Intervention</text>
</g>
<!-- ArmGroup&#45;&gt;Intervention -->
<g id="edge2" class="edge"><title>ArmGroup&#45;&gt;Intervention</title>
<path fill="none" stroke="#46e68b" d="M2151.32,-142.706C2130.62,-132.573 2104.93,-120 2084.07,-109.789"/>
<polygon fill="#46e68b" stroke="#46e68b" points="2151.45,-142.774 2158.46,-151.212 2155.94,-144.972 2160.44,-147.17 2160.44,-147.17 2160.44,-147.17 2155.94,-144.972 2162.41,-143.129 2151.45,-142.774 2151.45,-142.774"/>
<polygon fill="#46e68b" stroke="#46e68b" points="2083.84,-109.678 2076.84,-101.24 2079.35,-107.48 2074.86,-105.282 2074.86,-105.282 2074.86,-105.282 2079.35,-107.48 2072.88,-109.323 2083.84,-109.678 2083.84,-109.678"/>
</g>
<!-- Authority -->
<g id="node4" class="node"><title>Authority</title>
<ellipse fill="none" stroke="black" cx="2636.69" cy="-324.5" rx="44.4923" ry="18"/>
<text text-anchor="middle" x="2636.69" y="-320.3" font-family="Times,serif" font-size="14.00">Authority</text>
</g>
<!-- OversightAuthority -->
<g id="node23" class="node"><title>OversightAuthority</title>
<ellipse fill="none" stroke="black" cx="2636.69" cy="-234" rx="79.2471" ry="18"/>
<text text-anchor="middle" x="2636.69" y="-229.8" font-family="Times,serif" font-size="14.00">OversightAuthority</text>
</g>
<!-- Authority&#45;&gt;OversightAuthority -->
<g id="edge3" class="edge"><title>Authority&#45;&gt;OversightAuthority</title>
<path fill="none" stroke="#c9e35f" d="M2636.69,-298.189C2636.69,-286.971 2636.69,-273.752 2636.69,-262.311"/>
<ellipse fill="none" stroke="#c9e35f" cx="2636.69" cy="-302.436" rx="4" ry="4"/>
<polygon fill="#c9e35f" stroke="#c9e35f" points="2636.69,-262.011 2641.19,-252.011 2636.69,-257.011 2636.69,-252.011 2636.69,-252.011 2636.69,-252.011 2636.69,-257.011 2632.19,-252.011 2636.69,-262.011 2636.69,-262.011"/>
</g>
<!-- Condition -->
<g id="node5" class="node"><title>Condition</title>
<ellipse fill="none" stroke="black" cx="1850.69" cy="-324.5" rx="45.47" ry="18"/>
<text text-anchor="middle" x="1850.69" y="-320.3" font-family="Times,serif" font-size="14.00">Condition</text>
</g>
<!-- Study -->
<g id="node33" class="node"><title>Study</title>
<ellipse fill="none" stroke="black" cx="1281.69" cy="-234" rx="30.9967" ry="18"/>
<text text-anchor="middle" x="1281.69" y="-229.8" font-family="Times,serif" font-size="14.00">Study</text>
</g>
<!-- Condition&#45;&gt;Study -->
<g id="edge5" class="edge"><title>Condition&#45;&gt;Study</title>
<path fill="none" stroke="#a7f9f3" d="M1798.74,-315.42C1686.06,-297.895 1421.29,-256.714 1321.07,-241.125"/>
<polygon fill="#a7f9f3" stroke="#a7f9f3" points="1798.97,-315.455 1808.16,-321.439 1803.91,-316.224 1808.85,-316.992 1808.85,-316.992 1808.85,-316.992 1803.91,-316.224 1809.54,-312.546 1798.97,-315.455 1798.97,-315.455"/>
<polygon fill="#a7f9f3" stroke="#a7f9f3" points="1320.94,-241.105 1311.75,-235.122 1316,-240.337 1311.06,-239.568 1311.06,-239.568 1311.06,-239.568 1316,-240.337 1310.37,-244.015 1320.94,-241.105 1320.94,-241.105"/>
</g>
<!-- StudyCondition -->
<g id="node34" class="node"><title>StudyCondition</title>
<ellipse fill="none" stroke="black" cx="2321.69" cy="-162" rx="66.2513" ry="18"/>
<text text-anchor="middle" x="2321.69" y="-157.8" font-family="Times,serif" font-size="14.00">StudyCondition</text>
</g>
<!-- Condition&#45;&gt;StudyCondition -->
<g id="edge4" class="edge"><title>Condition&#45;&gt;StudyCondition</title>
<path fill="none" stroke="#798946" d="M1891.98,-309.431C1978.73,-279.868 2179.6,-211.419 2272.69,-179.696"/>
<ellipse fill="none" stroke="#798946" cx="1887.97" cy="-310.796" rx="4.00001" ry="4.00001"/>
<polygon fill="#798946" stroke="#798946" points="2272.69,-179.695 2283.61,-180.729 2277.43,-178.082 2282.16,-176.47 2282.16,-176.47 2282.16,-176.47 2277.43,-178.082 2280.71,-172.21 2272.69,-179.695 2272.69,-179.695"/>
</g>
<!-- Contact -->
<g id="node6" class="node"><title>Contact</title>
<ellipse fill="none" stroke="black" cx="721.688" cy="-18" rx="37.7266" ry="18"/>
<text text-anchor="middle" x="721.688" y="-13.8" font-family="Times,serif" font-size="14.00">Contact</text>
</g>
<!-- Contact&#45;&gt;Study -->
<g id="edge6" class="edge"><title>Contact&#45;&gt;Study</title>
<path fill="none" stroke="#5c031a" d="M681.49,-29.6502C601.025,-52.7547 433.189,-110.994 497.688,-180 523.373,-207.48 1086.86,-226.953 1242.29,-231.815"/>
<ellipse fill="none" stroke="#5c031a" cx="685.609" cy="-28.4843" rx="4.00001" ry="4.00001"/>
<ellipse fill="#5c031a" stroke="#5c031a" cx="1246.66" cy="-231.951" rx="4" ry="4"/>
</g>
<!-- Country -->
<g id="node7" class="node"><title>Country</title>
<ellipse fill="none" stroke="black" cx="264.688" cy="-324.5" rx="39.1887" ry="18"/>
<text text-anchor="middle" x="264.688" y="-320.3" font-family="Times,serif" font-size="14.00">Country</text>
</g>
<!-- Facility -->
<g id="node11" class="node"><title>Facility</title>
<ellipse fill="none" stroke="black" cx="327.688" cy="-18" rx="37.2507" ry="18"/>
<text text-anchor="middle" x="327.688" y="-13.8" font-family="Times,serif" font-size="14.00">Facility</text>
</g>
<!-- Country&#45;&gt;Facility -->
<g id="edge7" class="edge"><title>Country&#45;&gt;Facility</title>
<path fill="none" stroke="#e5d829" d="M244.647,-301.097C216.617,-266.901 171.689,-199.778 195.688,-144 216.04,-96.6969 264.069,-58.9146 296.228,-37.7318"/>
<ellipse fill="none" stroke="#e5d829" cx="247.432" cy="-304.418" rx="4.00002" ry="4.00002"/>
<polygon fill="#e5d829" stroke="#e5d829" points="296.426,-37.6049 307.272,-35.9904 300.634,-34.9041 304.842,-32.2033 304.842,-32.2033 304.842,-32.2033 300.634,-34.9041 302.411,-28.4163 296.426,-37.6049 296.426,-37.6049"/>
</g>
<!-- Country&#45;&gt;Study -->
<g id="edge9" class="edge"><title>Country&#45;&gt;Study</title>
<path fill="none" stroke="#250509" d="M312.786,-319.314C486.442,-304.203 1079.3,-252.612 1240.78,-238.56"/>
<polygon fill="#250509" stroke="#250509" points="312.662,-319.325 302.309,-315.709 307.68,-319.759 302.699,-320.192 302.699,-320.192 302.699,-320.192 307.68,-319.759 303.089,-324.675 312.662,-319.325 312.662,-319.325"/>
<polygon fill="#250509" stroke="#250509" points="1241.26,-238.518 1251.61,-242.134 1246.24,-238.085 1251.22,-237.651 1251.22,-237.651 1251.22,-237.651 1246.24,-238.085 1250.83,-233.168 1241.26,-238.518 1241.26,-238.518"/>
</g>
<!-- StudyCountry -->
<g id="node35" class="node"><title>StudyCountry</title>
<ellipse fill="none" stroke="black" cx="264.688" cy="-162" rx="59.9704" ry="18"/>
<text text-anchor="middle" x="264.688" y="-157.8" font-family="Times,serif" font-size="14.00">StudyCountry</text>
</g>
<!-- Country&#45;&gt;StudyCountry -->
<g id="edge8" class="edge"><title>Country&#45;&gt;StudyCountry</title>
<path fill="none" stroke="#bf2bdc" d="M264.688,-298.079C264.688,-268.675 264.688,-220.455 264.688,-190.284"/>
<ellipse fill="none" stroke="#bf2bdc" cx="264.688" cy="-302.324" rx="4" ry="4"/>
<polygon fill="#bf2bdc" stroke="#bf2bdc" points="264.688,-190.053 269.188,-180.053 264.688,-185.053 264.688,-180.053 264.688,-180.053 264.688,-180.053 264.688,-185.053 260.188,-180.053 264.688,-190.053 264.688,-190.053"/>
</g>
<!-- DesignProperty -->
<g id="node8" class="node"><title>DesignProperty</title>
<ellipse fill="none" stroke="black" cx="572.688" cy="-162" rx="65.7322" ry="18"/>
<text text-anchor="middle" x="572.688" y="-157.8" font-family="Times,serif" font-size="14.00">DesignProperty</text>
</g>
<!-- Eligibility -->
<g id="node9" class="node"><title>Eligibility</title>
<ellipse fill="none" stroke="black" cx="702.688" cy="-162" rx="45.9459" ry="18"/>
<text text-anchor="middle" x="702.688" y="-157.8" font-family="Times,serif" font-size="14.00">Eligibility</text>
</g>
<!-- Enrollment -->
<g id="node10" class="node"><title>Enrollment</title>
<ellipse fill="none" stroke="black" cx="816.688" cy="-162" rx="49.7878" ry="18"/>
<text text-anchor="middle" x="816.688" y="-157.8" font-family="Times,serif" font-size="14.00">Enrollment</text>
</g>
<!-- IdInfo -->
<g id="node12" class="node"><title>IdInfo</title>
<ellipse fill="none" stroke="black" cx="916.688" cy="-162" rx="32.415" ry="18"/>
<text text-anchor="middle" x="916.688" y="-157.8" font-family="Times,serif" font-size="14.00">IdInfo</text>
</g>
<!-- InsertError -->
<g id="node13" class="node"><title>InsertError</title>
<ellipse fill="none" stroke="black" cx="2747.69" cy="-324.5" rx="48.8014" ry="18"/>
<text text-anchor="middle" x="2747.69" y="-320.3" font-family="Times,serif" font-size="14.00">InsertError</text>
</g>
<!-- Intervention&#45;&gt;ArmGroupIntervention -->
<g id="edge11" class="edge"><title>Intervention&#45;&gt;ArmGroupIntervention</title>
<path fill="none" stroke="#0220a7" d="M2081.82,-71.3118C2101.7,-61.5826 2126.45,-49.468 2147.12,-39.3478"/>
<ellipse fill="none" stroke="#0220a7" cx="2078.22" cy="-73.0758" rx="4.00002" ry="4.00002"/>
<polygon fill="#0220a7" stroke="#0220a7" points="2147.32,-39.2507 2158.28,-38.8958 2151.81,-37.0523 2156.3,-34.854 2156.3,-34.854 2156.3,-34.854 2151.81,-37.0523 2154.32,-30.8123 2147.32,-39.2507 2147.32,-39.2507"/>
</g>
<!-- InterventionOtherName -->
<g id="node15" class="node"><title>InterventionOtherName</title>
<ellipse fill="none" stroke="black" cx="1983.69" cy="-18" rx="94.655" ry="18"/>
<text text-anchor="middle" x="1983.69" y="-13.8" font-family="Times,serif" font-size="14.00">InterventionOtherName</text>
</g>
<!-- Intervention&#45;&gt;InterventionOtherName -->
<g id="edge10" class="edge"><title>Intervention&#45;&gt;InterventionOtherName</title>
<path fill="none" stroke="#0f9c24" d="M2025.49,-66.1935C2019.09,-58.9654 2011.98,-50.9443 2005.47,-43.5962"/>
<ellipse fill="none" stroke="#0f9c24" cx="2028.34" cy="-69.4166" rx="4.00002" ry="4.00002"/>
<polygon fill="#0f9c24" stroke="#0f9c24" points="2005.34,-43.4421 2002.07,-32.9725 2002.02,-39.6992 1998.71,-35.9562 1998.71,-35.9562 1998.71,-35.9562 2002.02,-39.6992 1995.34,-38.9399 2005.34,-43.4421 2005.34,-43.4421"/>
</g>
<!-- Investigator -->
<g id="node16" class="node"><title>Investigator</title>
<ellipse fill="none" stroke="black" cx="1056.69" cy="-162" rx="52.1934" ry="18"/>
<text text-anchor="middle" x="1056.69" y="-157.8" font-family="Times,serif" font-size="14.00">Investigator</text>
</g>
<!-- Location -->
<g id="node19" class="node"><title>Location</title>
<ellipse fill="none" stroke="black" cx="976.688" cy="-90" rx="41.5766" ry="18"/>
<text text-anchor="middle" x="976.688" y="-85.8" font-family="Times,serif" font-size="14.00">Location</text>
</g>
<!-- Investigator&#45;&gt;Location -->
<g id="edge13" class="edge"><title>Investigator&#45;&gt;Location</title>
<path fill="none" stroke="#33f2d6" d="M1030.98,-138.509C1021.7,-130.383 1011.23,-121.22 1001.97,-113.126"/>
<polygon fill="#33f2d6" stroke="#33f2d6" points="1031.01,-138.531 1035.57,-148.503 1034.77,-141.823 1038.53,-145.116 1038.53,-145.116 1038.53,-145.116 1034.77,-141.823 1041.5,-141.729 1031.01,-138.531 1031.01,-138.531"/>
<polygon fill="#33f2d6" stroke="#33f2d6" points="1001.75,-112.925 997.183,-102.954 997.982,-109.633 994.219,-106.34 994.219,-106.34 994.219,-106.34 997.982,-109.633 991.256,-109.727 1001.75,-112.925 1001.75,-112.925"/>
</g>
<!-- LocationInvestigator -->
<g id="node20" class="node"><title>LocationInvestigator</title>
<ellipse fill="none" stroke="black" cx="1011.69" cy="-18" rx="83.5564" ry="18"/>
<text text-anchor="middle" x="1011.69" y="-13.8" font-family="Times,serif" font-size="14.00">LocationInvestigator</text>
</g>
<!-- Investigator&#45;&gt;LocationInvestigator -->
<g id="edge12" class="edge"><title>Investigator&#45;&gt;LocationInvestigator</title>
<path fill="none" stroke="#05bd02" d="M1048.74,-135.929C1040.72,-110.613 1028.37,-71.6496 1020.16,-45.7502"/>
<ellipse fill="none" stroke="#05bd02" cx="1050.05" cy="-140.058" rx="4.00001" ry="4.00001"/>
<polygon fill="#05bd02" stroke="#05bd02" points="1020.16,-45.722 1021.42,-34.8298 1018.65,-40.9557 1017.14,-36.1893 1017.14,-36.1893 1017.14,-36.1893 1018.65,-40.9557 1012.85,-37.5487 1020.16,-45.722 1020.16,-45.722"/>
</g>
<!-- StudyOfficial -->
<g id="node38" class="node"><title>StudyOfficial</title>
<ellipse fill="none" stroke="black" cx="1170.69" cy="-90" rx="57.5237" ry="18"/>
<text text-anchor="middle" x="1170.69" y="-85.8" font-family="Times,serif" font-size="14.00">StudyOfficial</text>
</g>
<!-- Investigator&#45;&gt;StudyOfficial -->
<g id="edge14" class="edge"><title>Investigator&#45;&gt;StudyOfficial</title>
<path fill="none" stroke="#54a997" d="M1088.09,-141.719C1103.2,-132.442 1121.33,-121.305 1136.76,-111.834"/>
<ellipse fill="none" stroke="#54a997" cx="1084.55" cy="-143.89" rx="4.00002" ry="4.00002"/>
<polygon fill="#54a997" stroke="#54a997" points="1136.96,-111.709 1147.84,-110.311 1141.22,-109.093 1145.48,-106.476 1145.48,-106.476 1145.48,-106.476 1141.22,-109.093 1143.13,-102.641 1136.96,-111.709 1136.96,-111.709"/>
</g>
<!-- Keyword -->
<g id="node17" class="node"><title>Keyword</title>
<ellipse fill="none" stroke="black" cx="2200.69" cy="-324.5" rx="43.0301" ry="18"/>
<text text-anchor="middle" x="2200.69" y="-320.3" font-family="Times,serif" font-size="14.00">Keyword</text>
</g>
<!-- Keyword&#45;&gt;Study -->
<g id="edge16" class="edge"><title>Keyword&#45;&gt;Study</title>
<path fill="none" stroke="#47516b" d="M2149.88,-316.867C2090.97,-309.3 1990.9,-296.834 1904.69,-288 1685.37,-265.526 1421.92,-245.353 1322.41,-237.975"/>
<polygon fill="#47516b" stroke="#47516b" points="2150.12,-316.897 2159.46,-322.638 2155.08,-317.536 2160.04,-318.175 2160.04,-318.175 2160.04,-318.175 2155.08,-317.536 2160.61,-313.712 2150.12,-316.897 2150.12,-316.897"/>
<polygon fill="#47516b" stroke="#47516b" points="1322.16,-237.957 1312.52,-232.732 1317.18,-237.589 1312.19,-237.22 1312.19,-237.22 1312.19,-237.22 1317.18,-237.589 1311.86,-241.708 1322.16,-237.957 1322.16,-237.957"/>
</g>
<!-- StudyKeyword -->
<g id="node37" class="node"><title>StudyKeyword</title>
<ellipse fill="none" stroke="black" cx="2469.69" cy="-162" rx="63.8115" ry="18"/>
<text text-anchor="middle" x="2469.69" y="-157.8" font-family="Times,serif" font-size="14.00">StudyKeyword</text>
</g>
<!-- Keyword&#45;&gt;StudyKeyword -->
<g id="edge15" class="edge"><title>Keyword&#45;&gt;StudyKeyword</title>
<path fill="none" stroke="#b7b660" d="M2231.72,-304.982C2282.25,-274.838 2381.93,-215.362 2434.82,-183.804"/>
<ellipse fill="none" stroke="#b7b660" cx="2227.99" cy="-307.207" rx="4.00002" ry="4.00002"/>
<polygon fill="#b7b660" stroke="#b7b660" points="2434.92,-183.743 2445.82,-182.483 2439.22,-181.181 2443.51,-178.619 2443.51,-178.619 2443.51,-178.619 2439.22,-181.181 2441.2,-174.754 2434.92,-183.743 2434.92,-183.743"/>
</g>
<!-- Link -->
<g id="node18" class="node"><title>Link</title>
<ellipse fill="none" stroke="black" cx="1153.69" cy="-162" rx="27" ry="18"/>
<text text-anchor="middle" x="1153.69" y="-157.8" font-family="Times,serif" font-size="14.00">Link</text>
</g>
<!-- Location&#45;&gt;Contact -->
<g id="edge18" class="edge"><title>Location&#45;&gt;Contact</title>
<path fill="none" stroke="#2e705b" d="M934.705,-77.4752C887.353,-64.4768 810.806,-43.4639 763.518,-30.4828"/>
<ellipse fill="none" stroke="#2e705b" cx="938.705" cy="-78.5732" rx="4.00001" ry="4.00001"/>
<polygon fill="#2e705b" stroke="#2e705b" points="763.247,-30.4086 754.795,-23.4219 758.426,-29.085 753.604,-27.7614 753.604,-27.7614 753.604,-27.7614 758.426,-29.085 752.413,-32.1009 763.247,-30.4086 763.247,-30.4086"/>
</g>
<!-- Location&#45;&gt;Facility -->
<g id="edge17" class="edge"><title>Location&#45;&gt;Facility</title>
<path fill="none" stroke="#59d020" d="M928.31,-83.7821C807.198,-70.7192 492.184,-36.7423 373.672,-23.9597"/>
<ellipse fill="none" stroke="#59d020" cx="932.603" cy="-84.245" rx="4" ry="4"/>
<polygon fill="#59d020" stroke="#59d020" points="373.431,-23.9339 363.972,-18.3874 368.46,-23.3977 363.489,-22.8615 363.489,-22.8615 363.489,-22.8615 368.46,-23.3977 363.006,-27.3355 373.431,-23.9339 373.431,-23.9339"/>
</g>
<!-- Location&#45;&gt;LocationInvestigator -->
<g id="edge19" class="edge"><title>Location&#45;&gt;LocationInvestigator</title>
<path fill="none" stroke="#d6535a" d="M988.774,-64.8269C991.93,-58.5146 995.347,-51.6811 998.555,-45.2658"/>
<ellipse fill="none" stroke="#d6535a" cx="986.949" cy="-68.4772" rx="4.00002" ry="4.00002"/>
<polygon fill="#d6535a" stroke="#d6535a" points="998.578,-45.2196 1007.08,-38.2878 1000.81,-40.7474 1003.05,-36.2753 1003.05,-36.2753 1003.05,-36.2753 1000.81,-40.7474 999.025,-34.2628 998.578,-45.2196 998.578,-45.2196"/>
</g>
<!-- MedicalSubjectHeading -->
<g id="node21" class="node"><title>MedicalSubjectHeading</title>
<ellipse fill="none" stroke="black" cx="2478.69" cy="-324.5" rx="95.6327" ry="18"/>
<text text-anchor="middle" x="2478.69" y="-320.3" font-family="Times,serif" font-size="14.00">MedicalSubjectHeading</text>
</g>
<!-- MedicalSubjectHeading&#45;&gt;Study -->
<g id="edge21" class="edge"><title>MedicalSubjectHeading&#45;&gt;Study</title>
<path fill="none" stroke="#4df07c" d="M2402.68,-309.593C2358.95,-302.087 2302.89,-293.299 2252.69,-288 1893.47,-250.082 1456.45,-238.524 1322.59,-235.751"/>
<polygon fill="#4df07c" stroke="#4df07c" points="2402.81,-309.616 2411.9,-315.756 2407.74,-310.469 2412.66,-311.322 2412.66,-311.322 2412.66,-311.322 2407.74,-310.469 2413.43,-306.888 2402.81,-309.616 2402.81,-309.616"/>
<polygon fill="#4df07c" stroke="#4df07c" points="1322.39,-235.747 1312.48,-231.045 1317.39,-235.646 1312.39,-235.544 1312.39,-235.544 1312.39,-235.544 1317.39,-235.646 1312.3,-240.044 1322.39,-235.747 1322.39,-235.747"/>
</g>
<!-- StudyTerm -->
<g id="node39" class="node"><title>StudyTerm</title>
<ellipse fill="none" stroke="black" cx="2600.69" cy="-162" rx="49.0622" ry="18"/>
<text text-anchor="middle" x="2600.69" y="-157.8" font-family="Times,serif" font-size="14.00">StudyTerm</text>
</g>
<!-- MedicalSubjectHeading&#45;&gt;StudyTerm -->
<g id="edge20" class="edge"><title>MedicalSubjectHeading&#45;&gt;StudyTerm</title>
<path fill="none" stroke="#bbc653" d="M2492.57,-299.26C2505.86,-276.835 2527.01,-242.992 2548.69,-216 2557.01,-205.635 2567.07,-195.02 2576.11,-186.038"/>
<ellipse fill="none" stroke="#bbc653" cx="2490.41" cy="-302.951" rx="4.00002" ry="4.00002"/>
<polygon fill="#bbc653" stroke="#bbc653" points="2576.25,-185.903 2586.55,-182.141 2579.83,-182.411 2583.4,-178.92 2583.4,-178.92 2583.4,-178.92 2579.83,-182.411 2580.26,-175.699 2576.25,-185.903 2576.25,-185.903"/>
</g>
<!-- Milestone -->
<g id="node22" class="node"><title>Milestone</title>
<ellipse fill="none" stroke="black" cx="1281.69" cy="-162" rx="45.4527" ry="18"/>
<text text-anchor="middle" x="1281.69" y="-157.8" font-family="Times,serif" font-size="14.00">Milestone</text>
</g>
<!-- OversightInformation -->
<g id="node24" class="node"><title>OversightInformation</title>
<ellipse fill="none" stroke="black" cx="1432.69" cy="-162" rx="87.4481" ry="18"/>
<text text-anchor="middle" x="1432.69" y="-157.8" font-family="Times,serif" font-size="14.00">OversightInformation</text>
</g>
<!-- ParseProgress -->
<g id="node25" class="node"><title>ParseProgress</title>
<ellipse fill="none" stroke="black" cx="2874.69" cy="-324.5" rx="59.9444" ry="18"/>
<text text-anchor="middle" x="2874.69" y="-320.3" font-family="Times,serif" font-size="14.00">ParseProgress</text>
</g>
<!-- ProtocolOutcome -->
<g id="node26" class="node"><title>ProtocolOutcome</title>
<ellipse fill="none" stroke="black" cx="1647.69" cy="-162" rx="72.4808" ry="18"/>
<text text-anchor="middle" x="1647.69" y="-157.8" font-family="Times,serif" font-size="14.00">ProtocolOutcome</text>
</g>
<!-- Reference -->
<g id="node27" class="node"><title>Reference</title>
<ellipse fill="none" stroke="black" cx="1783.69" cy="-162" rx="45.8855" ry="18"/>
<text text-anchor="middle" x="1783.69" y="-157.8" font-family="Times,serif" font-size="14.00">Reference</text>
</g>
<!-- ResponsibleParty -->
<g id="node28" class="node"><title>ResponsibleParty</title>
<ellipse fill="none" stroke="black" cx="1919.69" cy="-162" rx="72.0135" ry="18"/>
<text text-anchor="middle" x="1919.69" y="-157.8" font-family="Times,serif" font-size="14.00">ResponsibleParty</text>
</g>
<!-- Retrieval -->
<g id="node29" class="node"><title>Retrieval</title>
<ellipse fill="none" stroke="black" cx="2994.69" cy="-324.5" rx="42.5369" ry="18"/>
<text text-anchor="middle" x="2994.69" y="-320.3" font-family="Times,serif" font-size="14.00">Retrieval</text>
</g>
<!-- Source -->
<g id="node30" class="node"><title>Source</title>
<ellipse fill="none" stroke="black" cx="1281.69" cy="-324.5" rx="34.8285" ry="18"/>
<text text-anchor="middle" x="1281.69" y="-320.3" font-family="Times,serif" font-size="14.00">Source</text>
</g>
<!-- Source&#45;&gt;Study -->
<g id="edge22" class="edge"><title>Source&#45;&gt;Study</title>
<path fill="none" stroke="#64c373" d="M1281.69,-298.189C1281.69,-286.971 1281.69,-273.752 1281.69,-262.311"/>
<ellipse fill="none" stroke="#64c373" cx="1281.69" cy="-302.436" rx="4" ry="4"/>
<polygon fill="#64c373" stroke="#64c373" points="1281.69,-262.011 1286.19,-252.011 1281.69,-257.011 1281.69,-252.011 1281.69,-252.011 1281.69,-252.011 1281.69,-257.011 1277.19,-252.011 1281.69,-262.011 1281.69,-262.011"/>
</g>
<!-- Sponsor -->
<g id="node31" class="node"><title>Sponsor</title>
<ellipse fill="none" stroke="black" cx="991.688" cy="-324.5" rx="39.1973" ry="18"/>
<text text-anchor="middle" x="991.688" y="-320.3" font-family="Times,serif" font-size="14.00">Sponsor</text>
</g>
<!-- Sponsorship -->
<g id="node32" class="node"><title>Sponsorship</title>
<ellipse fill="none" stroke="black" cx="396.688" cy="-162" rx="53.6815" ry="18"/>
<text text-anchor="middle" x="396.688" y="-157.8" font-family="Times,serif" font-size="14.00">Sponsorship</text>
</g>
<!-- Sponsor&#45;&gt;Sponsorship -->
<g id="edge23" class="edge"><title>Sponsor&#45;&gt;Sponsorship</title>
<path fill="none" stroke="#fb20de" d="M951.054,-312.539C845.516,-284.071 562.892,-207.833 447.161,-176.615"/>
<ellipse fill="none" stroke="#fb20de" cx="954.988" cy="-313.6" rx="4.00001" ry="4.00001"/>
<polygon fill="#fb20de" stroke="#fb20de" points="447.13,-176.607 438.648,-169.658 442.303,-175.305 437.476,-174.002 437.476,-174.002 437.476,-174.002 442.303,-175.305 436.304,-178.347 447.13,-176.607 447.13,-176.607"/>
</g>
<!-- Sponsor&#45;&gt;Study -->
<g id="edge24" class="edge"><title>Sponsor&#45;&gt;Study</title>
<path fill="none" stroke="#bff8f7" d="M1032.86,-310.935C1089.54,-293.639 1190.72,-262.762 1244.95,-246.211"/>
<polygon fill="#bff8f7" stroke="#bff8f7" points="1032.84,-310.942 1021.96,-309.556 1028.06,-312.401 1023.27,-313.86 1023.27,-313.86 1023.27,-313.86 1028.06,-312.401 1024.59,-318.165 1032.84,-310.942 1032.84,-310.942"/>
<polygon fill="#bff8f7" stroke="#bff8f7" points="1245.26,-246.115 1256.14,-247.501 1250.05,-244.656 1254.83,-243.197 1254.83,-243.197 1254.83,-243.197 1250.05,-244.656 1253.52,-238.893 1245.26,-246.115 1245.26,-246.115"/>
</g>
<!-- Study&#45;&gt;ArmGroup -->
<g id="edge35" class="edge"><title>Study&#45;&gt;ArmGroup</title>
<path fill="none" stroke="#726837" d="M1320.71,-233.635C1441.88,-234.952 1822.08,-234.16 2130.69,-180 2135.05,-179.235 2139.55,-178.259 2144.02,-177.165"/>
<ellipse fill="none" stroke="#726837" cx="1316.43" cy="-233.584" rx="4" ry="4"/>
<polygon fill="#726837" stroke="#726837" points="2144.04,-177.16 2154.86,-178.963 2148.88,-175.886 2153.71,-174.612 2153.71,-174.612 2153.71,-174.612 2148.88,-175.886 2152.57,-170.26 2144.04,-177.16 2144.04,-177.16"/>
</g>
<!-- Study&#45;&gt;DesignProperty -->
<g id="edge45" class="edge"><title>Study&#45;&gt;DesignProperty</title>
<path fill="none" stroke="#45a201" d="M1240.73,-231.556C1139.55,-227.561 869.88,-214.298 647.688,-180 641.855,-179.1 635.801,-178.003 629.775,-176.806"/>
<polygon fill="#45a201" stroke="#45a201" points="1240.84,-231.56 1250.65,-236.443 1245.83,-231.753 1250.83,-231.946 1250.83,-231.946 1250.83,-231.946 1245.83,-231.753 1251,-227.45 1240.84,-231.56 1240.84,-231.56"/>
<polygon fill="#45a201" stroke="#45a201" points="629.496,-176.748 620.622,-170.305 624.6,-175.729 619.705,-174.711 619.705,-174.711 619.705,-174.711 624.6,-175.729 618.789,-179.117 629.496,-176.748 629.496,-176.748"/>
</g>
<!-- Study&#45;&gt;Eligibility -->
<g id="edge28" class="edge"><title>Study&#45;&gt;Eligibility</title>
<path fill="none" stroke="#7e6104" d="M1242.91,-231.714C1155.49,-228.243 936.73,-216.347 757.688,-180 753.17,-179.083 748.495,-177.944 743.865,-176.694"/>
<ellipse fill="none" stroke="#7e6104" cx="1246.95" cy="-231.87" rx="4" ry="4"/>
<ellipse fill="#7e6104" stroke="#7e6104" cx="740.002" cy="-175.596" rx="4.00001" ry="4.00001"/>
</g>
<!-- Study&#45;&gt;Enrollment -->
<g id="edge27" class="edge"><title>Study&#45;&gt;Enrollment</title>
<path fill="none" stroke="#1a3f38" d="M1242.97,-229.904C1170.38,-223.667 1009.1,-207.764 875.688,-180 870.825,-178.988 865.778,-177.781 860.775,-176.484"/>
<ellipse fill="none" stroke="#1a3f38" cx="1247.39" cy="-230.279" rx="4" ry="4"/>
<ellipse fill="#1a3f38" stroke="#1a3f38" cx="856.844" cy="-175.426" rx="4.00001" ry="4.00001"/>
</g>
<!-- Study&#45;&gt;IdInfo -->
<g id="edge25" class="edge"><title>Study&#45;&gt;IdInfo</title>
<path fill="none" stroke="#7577e7" d="M1243.26,-228.997C1182.82,-222.172 1062.19,-206.398 962.688,-180 958.47,-178.881 954.098,-177.529 949.801,-176.082"/>
<ellipse fill="none" stroke="#7577e7" cx="1247.4" cy="-229.459" rx="4.00001" ry="4.00001"/>
<ellipse fill="#7577e7" stroke="#7577e7" cx="945.973" cy="-174.733" rx="4.00001" ry="4.00001"/>
</g>
<!-- Study&#45;&gt;Intervention -->
<g id="edge34" class="edge"><title>Study&#45;&gt;Intervention</title>
<path fill="none" stroke="#647be4" d="M1320.44,-231.138C1371.02,-227.311 1461.06,-215.63 1528.69,-180 1549.27,-169.157 1545.58,-153.789 1566.69,-144 1639.09,-110.416 1869.64,-97.4526 1982.38,-93.0274"/>
<ellipse fill="none" stroke="#647be4" cx="1316.36" cy="-231.426" rx="4" ry="4"/>
<polygon fill="#647be4" stroke="#647be4" points="1982.6,-93.0193 1992.76,-97.1343 1987.59,-92.8284 1992.59,-92.6376 1992.59,-92.6376 1992.59,-92.6376 1987.59,-92.8284 1992.42,-88.1408 1982.6,-93.0193 1982.6,-93.0193"/>
</g>
<!-- Study&#45;&gt;Investigator -->
<g id="edge43" class="edge"><title>Study&#45;&gt;Investigator</title>
<path fill="none" stroke="#1ced36" d="M1245.28,-221.673C1206.83,-209.711 1146.06,-190.805 1103.94,-177.701"/>
<polygon fill="#1ced36" stroke="#1ced36" points="1245.45,-221.724 1253.66,-228.992 1250.22,-223.21 1254.99,-224.695 1254.99,-224.695 1254.99,-224.695 1250.22,-223.21 1256.33,-220.398 1245.45,-221.724 1245.45,-221.724"/>
<polygon fill="#1ced36" stroke="#1ced36" points="1103.74,-177.639 1095.53,-170.371 1098.97,-176.153 1094.19,-174.668 1094.19,-174.668 1094.19,-174.668 1098.97,-176.153 1092.85,-178.965 1103.74,-177.639 1103.74,-177.639"/>
</g>
<!-- Study&#45;&gt;Link -->
<g id="edge31" class="edge"><title>Study&#45;&gt;Link</title>
<path fill="none" stroke="#187210" d="M1252.84,-217.222C1231.87,-205.753 1203.6,-190.294 1182.61,-178.816"/>
<ellipse fill="none" stroke="#187210" cx="1256.46" cy="-219.206" rx="4.00002" ry="4.00002"/>
<polygon fill="#187210" stroke="#187210" points="1182.59,-178.807 1175.98,-170.06 1178.2,-176.408 1173.82,-174.008 1173.82,-174.008 1173.82,-174.008 1178.2,-176.408 1171.66,-177.957 1182.59,-178.807 1182.59,-178.807"/>
</g>
<!-- Study&#45;&gt;Location -->
<g id="edge37" class="edge"><title>Study&#45;&gt;Location</title>
<path fill="none" stroke="#f94e71" d="M1242.67,-231.006C1172.78,-226.614 1030.29,-213.676 995.688,-180 979.372,-164.121 975.404,-137.918 975.053,-118.046"/>
<ellipse fill="none" stroke="#f94e71" cx="1246.83" cy="-231.258" rx="4" ry="4"/>
<polygon fill="#f94e71" stroke="#f94e71" points="975.053,-118.041 979.663,-108.091 975.108,-113.041 975.163,-108.041 975.163,-108.041 975.163,-108.041 975.108,-113.041 970.663,-107.992 975.053,-118.041 975.053,-118.041"/>
</g>
<!-- Study&#45;&gt;Milestone -->
<g id="edge26" class="edge"><title>Study&#45;&gt;Milestone</title>
<path fill="none" stroke="#0ded6c" d="M1281.69,-207.64C1281.69,-201.348 1281.69,-194.605 1281.69,-188.316"/>
<ellipse fill="none" stroke="#0ded6c" cx="1281.69" cy="-211.697" rx="4" ry="4"/>
<ellipse fill="#0ded6c" stroke="#0ded6c" cx="1281.69" cy="-184.104" rx="4" ry="4"/>
</g>
<!-- Study&#45;&gt;OversightInformation -->
<g id="edge29" class="edge"><title>Study&#45;&gt;OversightInformation</title>
<path fill="none" stroke="#1a3b3f" d="M1312.4,-218.762C1335.2,-208.194 1366.53,-193.671 1391.5,-182.096"/>
<ellipse fill="none" stroke="#1a3b3f" cx="1308.58" cy="-220.534" rx="4.00002" ry="4.00002"/>
<ellipse fill="#1a3b3f" stroke="#1a3b3f" cx="1395.39" cy="-180.288" rx="4.00002" ry="4.00002"/>
</g>
<!-- Study&#45;&gt;ProtocolOutcome -->
<g id="edge32" class="edge"><title>Study&#45;&gt;ProtocolOutcome</title>
<path fill="none" stroke="#9b888b" d="M1318.91,-226.053C1372.57,-216.016 1474.78,-196.815 1561.69,-180 1568.67,-178.648 1575.98,-177.224 1583.25,-175.797"/>
<ellipse fill="none" stroke="#9b888b" cx="1314.66" cy="-226.849" rx="4.00001" ry="4.00001"/>
<polygon fill="#9b888b" stroke="#9b888b" points="1583.3,-175.788 1593.98,-178.274 1588.2,-174.823 1593.11,-173.858 1593.11,-173.858 1593.11,-173.858 1588.2,-174.823 1592.24,-169.443 1583.3,-175.788 1583.3,-175.788"/>
</g>
<!-- Study&#45;&gt;Reference -->
<g id="edge33" class="edge"><title>Study&#45;&gt;Reference</title>
<path fill="none" stroke="#a94e85" d="M1320.46,-230.782C1398.48,-225.797 1579.69,-211.586 1728.69,-180 1732.54,-179.184 1736.5,-178.217 1740.46,-177.164"/>
<ellipse fill="none" stroke="#a94e85" cx="1316.34" cy="-231.04" rx="4" ry="4"/>
<polygon fill="#a94e85" stroke="#a94e85" points="1740.58,-177.131 1751.43,-178.74 1745.39,-175.77 1750.2,-174.409 1750.2,-174.409 1750.2,-174.409 1745.39,-175.77 1748.98,-170.079 1740.58,-177.131 1740.58,-177.131"/>
</g>
<!-- Study&#45;&gt;ResponsibleParty -->
<g id="edge30" class="edge"><title>Study&#45;&gt;ResponsibleParty</title>
<path fill="none" stroke="#622132" d="M1320.41,-230.813C1411.3,-225.355 1645.22,-209.413 1838.69,-180 1845.78,-178.922 1853.19,-177.617 1860.52,-176.215"/>
<ellipse fill="none" stroke="#622132" cx="1316.32" cy="-231.057" rx="4" ry="4"/>
<ellipse fill="#622132" stroke="#622132" cx="1864.5" cy="-175.434" rx="4.00001" ry="4.00001"/>
</g>
<!-- Study&#45;&gt;Sponsorship -->
<g id="edge38" class="edge"><title>Study&#45;&gt;Sponsorship</title>
<path fill="none" stroke="#52c12e" d="M1242.97,-231.416C1102.18,-225.511 617.7,-203.89 464.688,-180 458.757,-179.074 452.587,-177.874 446.49,-176.539"/>
<ellipse fill="none" stroke="#52c12e" cx="1246.97" cy="-231.583" rx="4" ry="4"/>
<polygon fill="#52c12e" stroke="#52c12e" points="446.096,-176.448 437.37,-169.807 441.225,-175.32 436.354,-174.191 436.354,-174.191 436.354,-174.191 441.225,-175.32 435.338,-178.575 446.096,-176.448 446.096,-176.448"/>
</g>
<!-- Study&#45;&gt;StudyCondition -->
<g id="edge39" class="edge"><title>Study&#45;&gt;StudyCondition</title>
<path fill="none" stroke="#ad7c2e" d="M1320.92,-233.201C1452.48,-233.372 1889.78,-229.89 2246.69,-180 2252.62,-179.171 2258.77,-178.111 2264.89,-176.926"/>
<ellipse fill="none" stroke="#ad7c2e" cx="1316.7" cy="-233.192" rx="4" ry="4"/>
<polygon fill="#ad7c2e" stroke="#ad7c2e" points="2265.31,-176.841 2276.01,-179.241 2270.2,-175.837 2275.1,-174.833 2275.1,-174.833 2275.1,-174.833 2270.2,-175.837 2274.2,-170.425 2265.31,-176.841 2265.31,-176.841"/>
</g>
<!-- Study&#45;&gt;StudyCountry -->
<g id="edge41" class="edge"><title>Study&#45;&gt;StudyCountry</title>
<path fill="none" stroke="#a3f1af" d="M1242.67,-233.403C1112.77,-234.195 683.432,-232.396 333.688,-180 328.273,-179.189 322.663,-178.148 317.087,-176.982"/>
<ellipse fill="none" stroke="#a3f1af" cx="1246.79" cy="-233.375" rx="4" ry="4"/>
<polygon fill="#a3f1af" stroke="#a3f1af" points="316.899,-176.94 308.114,-170.376 312.018,-175.855 307.137,-174.769 307.137,-174.769 307.137,-174.769 312.018,-175.855 306.16,-179.162 316.899,-176.94 316.899,-176.94"/>
</g>
<!-- StudyDesign -->
<g id="node36" class="node"><title>StudyDesign</title>
<ellipse fill="none" stroke="black" cx="2065.69" cy="-162" rx="55.6026" ry="18"/>
<text text-anchor="middle" x="2065.69" y="-157.8" font-family="Times,serif" font-size="14.00">StudyDesign</text>
</g>
<!-- Study&#45;&gt;StudyDesign -->
<g id="edge44" class="edge"><title>Study&#45;&gt;StudyDesign</title>
<path fill="none" stroke="#e4786f" d="M1320.45,-232.618C1428.75,-231.02 1743.47,-222.75 2000.69,-180 2005.67,-179.173 2010.82,-178.139 2015.94,-176.993"/>
<ellipse fill="none" stroke="#e4786f" cx="1316.41" cy="-232.674" rx="4" ry="4"/>
<polygon fill="#e4786f" stroke="#e4786f" points="2015.98,-176.984 2026.75,-179.054 2020.85,-175.83 2025.71,-174.675 2025.71,-174.675 2025.71,-174.675 2020.85,-175.83 2024.67,-170.297 2015.98,-176.984 2015.98,-176.984"/>
</g>
<!-- Study&#45;&gt;StudyKeyword -->
<g id="edge36" class="edge"><title>Study&#45;&gt;StudyKeyword</title>
<path fill="none" stroke="#409702" d="M1320.72,-232.095C1492.5,-227.966 2182.21,-209.82 2396.69,-180 2402.55,-179.185 2408.63,-178.123 2414.67,-176.927"/>
<ellipse fill="none" stroke="#409702" cx="1316.46" cy="-232.197" rx="4" ry="4"/>
<polygon fill="#409702" stroke="#409702" points="2414.97,-176.866 2425.68,-179.213 2419.86,-175.837 2424.76,-174.809 2424.76,-174.809 2424.76,-174.809 2419.86,-175.837 2423.83,-170.405 2414.97,-176.866 2414.97,-176.866"/>
</g>
<!-- Study&#45;&gt;StudyOfficial -->
<g id="edge42" class="edge"><title>Study&#45;&gt;StudyOfficial</title>
<path fill="none" stroke="#db00f5" d="M1259.07,-212.969C1248.93,-203.463 1237.15,-191.652 1227.69,-180 1211.36,-159.897 1195.71,-134.905 1184.95,-116.527"/>
<ellipse fill="none" stroke="#db00f5" cx="1262.19" cy="-215.854" rx="4.00002" ry="4.00002"/>
<polygon fill="#db00f5" stroke="#db00f5" points="1184.93,-116.498 1183.84,-105.587 1182.44,-112.166 1179.94,-107.834 1179.94,-107.834 1179.94,-107.834 1182.44,-112.166 1176.04,-110.082 1184.93,-116.498 1184.93,-116.498"/>
</g>
<!-- Study&#45;&gt;StudyTerm -->
<g id="edge40" class="edge"><title>Study&#45;&gt;StudyTerm</title>
<path fill="none" stroke="#81c764" d="M1320.66,-232.636C1505.94,-230.712 2298.89,-220.235 2542.69,-180 2547.06,-179.279 2551.56,-178.334 2556.04,-177.257"/>
<ellipse fill="none" stroke="#81c764" cx="1316.55" cy="-232.678" rx="4" ry="4"/>
<polygon fill="#81c764" stroke="#81c764" points="2556.06,-177.253 2566.87,-179.084 2560.89,-175.991 2565.73,-174.729 2565.73,-174.729 2565.73,-174.729 2560.89,-175.991 2564.6,-170.375 2556.06,-177.253 2556.06,-177.253"/>
</g>
<!-- Textblock -->
<g id="node40" class="node"><title>Textblock</title>
<ellipse fill="none" stroke="black" cx="3100.69" cy="-324.5" rx="45.1856" ry="18"/>
<text text-anchor="middle" x="3100.69" y="-320.3" font-family="Times,serif" font-size="14.00">Textblock</text>
</g>
</g>
</svg>
